# xmcd
#
# Track frame offsets:
#	150
#	14628
#	34261
#	64635
#	91996
#
# Disc length: 1642 seconds
#
# Revision: 1
# Processed by: cddbd v1.5.2PL0 Copyright (c) Steve Scherf et al.
# Submitted via: audiograbber 1.83.01
#
DISCID=3a066805
DTITLE=Dougal and Gammer - Hard2Beat Promo - When I Close My Eyes
DYEAR=2009
DGENRE=Dance
TTITLE0=When I Close My Eyes (Kindervater Edit)
TTITLE1=When I Close My Eyes (Kindervater Remix)
TTITLE2=When I Close My Eyes (Esquire Remix)
TTITLE3=When I Close My Eyes (Nitra M Vs The Rezidents Remix)
TTITLE4=When I Close My Eyes (Darren Styles Remix)
EXTD=
EXTT0=
EXTT1=
EXTT2=
EXTT3=
EXTT4=
PLAYORDER=
